<mxfile host="app.diagrams.net" modified="2022-11-29T02:05:12.749Z" agent="5.0 (Windows NT 10.0; Win64; x64) AppleWebKit/537.36 (KHTML, like Gecko) Chrome/107.0.0.0 Safari/537.36 Edg/107.0.1418.56" etag="MX1P59nKLw54bJ_kGHWj" version="20.6.0" type="github">
  <diagram id="GJ6GTQQnPT1MaNK36x4u" name="第 1 页">
    <mxGraphModel dx="1038" dy="579" grid="1" gridSize="10" guides="1" tooltips="1" connect="1" arrows="1" fold="1" page="1" pageScale="1" pageWidth="827" pageHeight="1169" math="0" shadow="0">
      <root>
        <mxCell id="0" />
        <mxCell id="1" parent="0" />
        <mxCell id="g31bgMhxSViuIj-fNl56-12" style="edgeStyle=orthogonalEdgeStyle;rounded=0;orthogonalLoop=1;jettySize=auto;html=1;exitX=1;exitY=0.5;exitDx=0;exitDy=0;entryX=0;entryY=0.5;entryDx=0;entryDy=0;fontSize=18;" parent="1" source="g31bgMhxSViuIj-fNl56-6" target="g31bgMhxSViuIj-fNl56-7" edge="1">
          <mxGeometry relative="1" as="geometry" />
        </mxCell>
        <mxCell id="g31bgMhxSViuIj-fNl56-6" value="" style="rounded=1;whiteSpace=wrap;html=1;fontSize=18;fillColor=none;dashed=1;" parent="1" vertex="1">
          <mxGeometry x="120" y="110" width="140" height="335" as="geometry" />
        </mxCell>
        <mxCell id="g31bgMhxSViuIj-fNl56-1" value="UFILE" style="rounded=1;whiteSpace=wrap;html=1;fontSize=18;" parent="1" vertex="1">
          <mxGeometry x="620" y="252.5" width="120" height="50" as="geometry" />
        </mxCell>
        <mxCell id="g31bgMhxSViuIj-fNl56-3" value="图片" style="rounded=1;whiteSpace=wrap;html=1;fontSize=18;" parent="1" vertex="1">
          <mxGeometry x="130" y="160" width="120" height="50" as="geometry" />
        </mxCell>
        <mxCell id="g31bgMhxSViuIj-fNl56-4" value="音频" style="rounded=1;whiteSpace=wrap;html=1;fontSize=18;" parent="1" vertex="1">
          <mxGeometry x="130" y="270" width="120" height="50" as="geometry" />
        </mxCell>
        <mxCell id="g31bgMhxSViuIj-fNl56-5" value="视频" style="rounded=1;whiteSpace=wrap;html=1;fontSize=18;" parent="1" vertex="1">
          <mxGeometry x="130" y="380" width="120" height="50" as="geometry" />
        </mxCell>
        <mxCell id="g31bgMhxSViuIj-fNl56-13" style="edgeStyle=orthogonalEdgeStyle;rounded=0;orthogonalLoop=1;jettySize=auto;html=1;exitX=1;exitY=0.5;exitDx=0;exitDy=0;entryX=0;entryY=0.5;entryDx=0;entryDy=0;fontSize=18;" parent="1" source="g31bgMhxSViuIj-fNl56-7" target="g31bgMhxSViuIj-fNl56-1" edge="1">
          <mxGeometry relative="1" as="geometry" />
        </mxCell>
        <mxCell id="g31bgMhxSViuIj-fNl56-7" value="" style="rounded=1;whiteSpace=wrap;html=1;fontSize=18;fillColor=none;dashed=1;" parent="1" vertex="1">
          <mxGeometry x="370" y="110" width="140" height="335" as="geometry" />
        </mxCell>
        <mxCell id="g31bgMhxSViuIj-fNl56-8" value="图片OCR" style="rounded=1;whiteSpace=wrap;html=1;fontSize=18;" parent="1" vertex="1">
          <mxGeometry x="380" y="160" width="120" height="50" as="geometry" />
        </mxCell>
        <mxCell id="g31bgMhxSViuIj-fNl56-9" value="音频转录" style="rounded=1;whiteSpace=wrap;html=1;fontSize=18;" parent="1" vertex="1">
          <mxGeometry x="380" y="270" width="120" height="50" as="geometry" />
        </mxCell>
        <mxCell id="g31bgMhxSViuIj-fNl56-10" value="视频处理" style="rounded=1;whiteSpace=wrap;html=1;fontSize=18;" parent="1" vertex="1">
          <mxGeometry x="380" y="380" width="120" height="50" as="geometry" />
        </mxCell>
        <mxCell id="g31bgMhxSViuIj-fNl56-14" value="函数计算平台" style="text;html=1;strokeColor=none;fillColor=none;align=center;verticalAlign=middle;whiteSpace=wrap;rounded=0;dashed=1;fontSize=18;" parent="1" vertex="1">
          <mxGeometry x="370" y="120" width="140" height="30" as="geometry" />
        </mxCell>
        <mxCell id="g31bgMhxSViuIj-fNl56-15" value="下游系统" style="text;html=1;strokeColor=none;fillColor=none;align=center;verticalAlign=middle;whiteSpace=wrap;rounded=0;dashed=1;fontSize=18;" parent="1" vertex="1">
          <mxGeometry x="120" y="120" width="140" height="30" as="geometry" />
        </mxCell>
      </root>
    </mxGraphModel>
  </diagram>
</mxfile>
